<?xml version="1.0" encoding="UTF-8"?>
<svg id="Layer_2" data-name="Layer 2" xmlns="http://www.w3.org/2000/svg" xmlns:xlink="http://www.w3.org/1999/xlink" viewBox="0 0 1278.72 1279.14">
  <defs>
    <style>
      .cls-1 {
        fill: url(#linear-gradient-2);
      }

      .cls-2 {
        fill: url(#linear-gradient-6);
      }

      .cls-3 {
        fill: url(#linear-gradient-10);
      }

      .cls-4 {
        fill: url(#linear-gradient-5);
      }

      .cls-5 {
        fill: url(#linear-gradient-7);
      }

      .cls-6 {
        fill: url(#linear-gradient-9);
      }

      .cls-7 {
        fill: url(#linear-gradient-3);
      }

      .cls-8 {
        fill: url(#linear-gradient);
      }

      .cls-9 {
        fill: url(#linear-gradient-4);
      }

      .cls-10 {
        fill: url(#linear-gradient-8);
      }
    </style>
    <linearGradient id="linear-gradient" x1="618.17" y1="387.05" x2="1200.02" y2="387.05" gradientUnits="userSpaceOnUse">
      <stop offset="0" stop-color="#bf7821"/>
      <stop offset="1" stop-color="#f2c849"/>
    </linearGradient>
    <linearGradient id="linear-gradient-2" x1="595.14" y1="379.55" x2="1176.99" y2="379.55" xlink:href="#linear-gradient"/>
    <linearGradient id="linear-gradient-3" x1="78.82" y1="387.05" x2="660.67" y2="387.05" xlink:href="#linear-gradient"/>
    <linearGradient id="linear-gradient-4" x1="101.85" y1="379.55" x2="683.7" y2="379.55" xlink:href="#linear-gradient"/>
    <linearGradient id="linear-gradient-5" x1="-20.64" y1="704.57" x2="1299.35" y2="704.57" xlink:href="#linear-gradient"/>
    <linearGradient id="linear-gradient-6" x1="-20.64" y1="575.58" x2="1299.35" y2="575.58" xlink:href="#linear-gradient"/>
    <linearGradient id="linear-gradient-7" x1="0" y1="640.07" x2="128.99" y2="640.07" xlink:href="#linear-gradient"/>
    <linearGradient id="linear-gradient-8" x1="128.99" y1="640.07" x2="257.99" y2="640.07" xlink:href="#linear-gradient"/>
    <linearGradient id="linear-gradient-9" x1="1020.73" y1="640.07" x2="1149.73" y2="640.07" xlink:href="#linear-gradient"/>
    <linearGradient id="linear-gradient-10" x1="1149.73" y1="640.07" x2="1278.72" y2="640.07" xlink:href="#linear-gradient"/>
  </defs>
  <g id="Layer_1-2" data-name="Layer 1">
    <g>
      <g>
        <path class="cls-8" d="m1164.83,7.49c4.47,2.54,8.35,6.5,10.96,11.18,2.7,4.65,4.43,9.82,5.63,15.03,1.17,5.23,1.76,10.56,2.07,15.87.31,5.32.23,10.63-.05,15.91-1.16,21.16-5.51,41.8-10.84,62.01-2.7,10.1-5.78,20.08-9.02,29.99-3.24,9.91-6.84,19.69-10.52,29.42-3.67,9.74-7.62,19.36-11.68,28.92-4.08,9.55-8.24,19.07-12.65,28.46-35.12,75.24-78.17,146.31-126.02,213.77-23.98,33.7-49.23,66.52-75.92,98.18-3.32,3.97-6.7,7.89-10.06,11.83-3.39,3.91-6.79,7.82-10.22,11.7-6.82,7.79-13.81,15.44-20.86,23.04-7.04,7.6-14.15,15.14-21.39,22.56-7.26,7.4-14.61,14.72-22.06,21.95-7.42,7.25-15.03,14.32-22.73,21.3-7.71,6.97-15.48,13.87-23.48,20.53-7.99,6.67-16.05,13.26-24.34,19.59-8.3,6.31-16.72,12.48-25.38,18.36-8.68,5.83-17.52,11.47-26.66,16.65-4.59,2.56-9.21,5.07-13.94,7.4-4.7,2.38-9.53,4.54-14.43,6.53-4.89,2-9.89,3.81-15.02,5.27-5.12,1.46-10.35,2.64-15.68,3.25-5.32.57-10.77.63-16.05-.39l-.99-.18-.98-.26-1.93-.52c-.64-.21-1.26-.46-1.88-.68-.62-.23-1.25-.45-1.83-.77l-1.77-.89c-.57-.32-1.12-.7-1.67-1.05l-.82-.53c-.27-.19-.51-.4-.77-.6l-1.51-1.21,1.73.84c.29.14.57.28.86.41l.9.32c.6.21,1.18.44,1.78.62l1.83.44c.6.17,1.22.26,1.83.35.62.09,1.22.2,1.84.26l1.85.1.92.05.93-.03c4.92-.08,9.77-1.04,14.46-2.51,4.7-1.45,9.26-3.37,13.7-5.55,4.43-2.2,8.79-4.57,13.02-7.2,8.47-5.23,16.63-11.02,24.53-17.17,7.9-6.17,15.62-12.58,23.12-19.27,7.53-6.65,14.93-13.48,22.15-20.5,7.23-7.01,14.41-14.09,21.42-21.35,7-7.27,13.98-14.56,20.83-21.97,6.86-7.41,13.57-14.96,20.32-22.48,6.72-7.54,13.35-15.17,19.89-22.89,6.58-7.68,13.13-15.38,19.56-23.19,12.87-15.6,25.56-31.37,38.04-47.3,24.98-31.86,49.13-64.38,72.64-97.36,23.46-33.02,46.26-66.51,68.16-100.55,10.94-17.03,21.7-34.17,32.2-51.46,5.27-8.64,10.37-17.36,15.49-26.08,5.14-8.71,10.17-17.48,15.08-26.31,4.88-8.84,9.83-17.66,14.57-26.58,4.74-8.91,9.35-17.89,13.91-26.89,4.55-9,8.88-18.11,13.14-27.24,4.26-9.13,8.27-18.36,12.09-27.66,7.62-18.59,14.43-37.54,18.77-56.98,1.1-4.86,1.9-9.76,2.52-14.67.61-4.91.91-9.85.74-14.76-.15-4.91-.85-9.8-2.38-14.48l-.28-.89-.35-.85-.71-1.72c-.26-.56-.57-1.09-.85-1.65-.28-.55-.57-1.11-.93-1.62l-1.02-1.58c-.37-.51-.78-.98-1.17-1.48l-.6-.74c-.21-.24-.44-.45-.67-.68l-1.36-1.36Z"/>
        <path class="cls-1" d="m630.34,759.11c-4.47-2.54-8.35-6.5-10.96-11.18-2.7-4.65-4.43-9.82-5.63-15.03-1.17-5.23-1.76-10.56-2.07-15.87-.31-5.32-.23-10.63.05-15.91,1.16-21.16,5.51-41.8,10.84-62.01,2.7-10.1,5.78-20.08,9.02-29.99,3.24-9.91,6.84-19.69,10.52-29.42,3.67-9.74,7.62-19.36,11.68-28.92,4.08-9.55,8.24-19.07,12.65-28.46,35.12-75.24,78.17-146.31,126.02-213.77,23.98-33.7,49.23-66.52,75.92-98.18,3.32-3.97,6.7-7.89,10.06-11.83,3.39-3.91,6.79-7.82,10.22-11.7,6.82-7.79,13.81-15.44,20.86-23.04,7.04-7.6,14.15-15.14,21.39-22.56,7.26-7.4,14.61-14.72,22.06-21.95,7.42-7.25,15.03-14.32,22.73-21.3,7.71-6.97,15.48-13.87,23.48-20.53,7.99-6.67,16.05-13.26,24.34-19.59,8.3-6.31,16.72-12.48,25.38-18.36,8.68-5.83,17.52-11.47,26.66-16.65,4.59-2.56,9.21-5.07,13.94-7.4,4.7-2.38,9.53-4.54,14.43-6.53,4.89-2,9.89-3.81,15.02-5.27,5.12-1.46,10.35-2.64,15.68-3.25,5.32-.57,10.77-.63,16.05.39l.99.18.98.26,1.93.52c.64.21,1.26.46,1.88.68.62.23,1.25.45,1.83.77l1.77.89c.57.32,1.12.7,1.67,1.05l.82.53c.27.19.51.4.77.6l1.51,1.21-1.73-.84c-.29-.14-.57-.28-.86-.41l-.9-.32c-.6-.21-1.18-.44-1.78-.62l-1.83-.44c-.6-.17-1.22-.26-1.83-.35-.62-.09-1.22-.2-1.84-.26l-1.85-.1-.92-.05-.93.03c-4.92.08-9.77,1.04-14.46,2.51-4.7,1.45-9.26,3.37-13.7,5.55-4.43,2.2-8.79,4.57-13.02,7.2-8.47,5.23-16.63,11.02-24.53,17.17-7.9,6.17-15.62,12.58-23.12,19.27-7.53,6.65-14.93,13.48-22.15,20.5-7.23,7.01-14.41,14.09-21.42,21.35-7,7.27-13.98,14.56-20.83,21.97-6.86,7.41-13.57,14.96-20.32,22.48-6.72,7.54-13.35,15.17-19.89,22.89-6.58,7.68-13.13,15.38-19.56,23.19-12.87,15.6-25.56,31.37-38.04,47.3-24.98,31.86-49.13,64.38-72.64,97.36-23.46,33.02-46.26,66.51-68.16,100.55-10.94,17.03-21.7,34.17-32.2,51.46-5.27,8.64-10.37,17.36-15.49,26.08-5.14,8.71-10.17,17.48-15.08,26.31-4.88,8.84-9.83,17.66-14.57,26.58-4.74,8.91-9.35,17.89-13.91,26.89-4.55,9-8.88,18.11-13.14,27.24-4.26,9.13-8.27,18.36-12.09,27.66-7.62,18.59-14.43,37.54-18.77,56.98-1.1,4.86-1.9,9.76-2.52,14.67-.61,4.91-.91,9.85-.74,14.76.15,4.91.85,9.8,2.38,14.48l.28.89.35.85.71,1.72c.26.56.57,1.09.85,1.65.28.55.57,1.11.93,1.62l1.02,1.58c.37.51.78.98,1.17,1.48l.6.74c.21.24.44.45.67.68l1.36,1.36Z"/>
      </g>
      <g>
        <path class="cls-7" d="m114.01,7.49l-1.36,1.36c-.22.23-.46.44-.67.68l-.6.74c-.39.5-.8.97-1.17,1.48l-1.02,1.58c-.36.51-.65,1.06-.93,1.62-.28.55-.59,1.09-.85,1.65l-.71,1.72-.35.85-.28.89c-1.54,4.68-2.23,9.57-2.38,14.48-.17,4.91.13,9.85.74,14.76.63,4.91,1.42,9.81,2.52,14.67,4.34,19.44,11.15,38.4,18.77,56.98,3.82,9.3,7.83,18.53,12.09,27.66,4.26,9.13,8.58,18.24,13.14,27.24,4.57,9,9.17,17.98,13.91,26.89,4.73,8.92,9.69,17.73,14.57,26.58,4.91,8.83,9.95,17.6,15.08,26.31,5.12,8.72,10.22,17.45,15.49,26.08,10.5,17.29,21.27,34.43,32.2,51.46,21.9,34.04,44.69,67.53,68.16,100.55,23.51,32.99,47.66,65.51,72.64,97.36,12.49,15.93,25.17,31.7,38.04,47.3,6.43,7.81,12.98,15.51,19.56,23.19,6.54,7.71,13.17,15.35,19.89,22.89,6.75,7.52,13.46,15.07,20.32,22.48,6.85,7.41,13.84,14.7,20.83,21.97,7.01,7.26,14.18,14.34,21.42,21.35,7.23,7.02,14.62,13.85,22.15,20.5,7.5,6.69,15.22,13.11,23.12,19.27,7.9,6.15,16.06,11.94,24.53,17.17,4.23,2.64,8.59,5,13.02,7.2,4.44,2.19,9,4.1,13.7,5.55,4.69,1.47,9.53,2.43,14.46,2.51l.93.03.92-.05,1.85-.1c.61-.07,1.22-.18,1.84-.26.62-.09,1.24-.17,1.83-.35l1.83-.44c.6-.18,1.18-.41,1.78-.62l.9-.32c.29-.12.57-.27.86-.41l1.73-.84-1.51,1.21c-.26.2-.5.42-.77.6l-.82.53c-.55.34-1.1.72-1.67,1.05l-1.77.89c-.59.32-1.21.54-1.83.77-.62.23-1.25.48-1.88.68l-1.93.52-.98.26-.99.18c-5.28,1.02-10.73.97-16.05.39-5.33-.61-10.56-1.8-15.68-3.25-5.12-1.45-10.12-3.27-15.02-5.27-4.9-2-9.73-4.15-14.43-6.53-4.73-2.33-9.35-4.84-13.94-7.4-9.14-5.18-17.97-10.82-26.66-16.65-8.65-5.87-17.08-12.05-25.38-18.36-8.29-6.33-16.35-12.92-24.34-19.59-8-6.66-15.78-13.56-23.48-20.53-7.7-6.98-15.31-14.05-22.73-21.3-7.45-7.22-14.8-14.55-22.06-21.95-7.24-7.42-14.35-14.97-21.39-22.56-7.05-7.59-14.04-15.25-20.86-23.04-3.43-3.88-6.83-7.78-10.22-11.7-3.36-3.94-6.74-7.86-10.06-11.83-26.69-31.66-51.94-64.47-75.92-98.18-47.85-67.46-90.89-138.53-126.02-213.77-4.42-9.39-8.58-18.91-12.65-28.46-4.06-9.56-8.01-19.18-11.68-28.92-3.68-9.73-7.27-19.51-10.52-29.42-3.24-9.91-6.31-19.89-9.02-29.99-5.33-20.21-9.68-40.85-10.84-62.01-.29-5.28-.36-10.6-.05-15.91.3-5.31.89-10.64,2.07-15.87,1.2-5.22,2.93-10.38,5.63-15.03,2.61-4.68,6.49-8.64,10.96-11.18Z"/>
        <path class="cls-9" d="m648.51,759.11l1.36-1.36c.22-.23.46-.44.67-.68l.6-.74c.39-.5.8-.97,1.17-1.48l1.02-1.58c.36-.51.65-1.06.93-1.62.28-.55.59-1.09.85-1.65l.71-1.72.35-.85.28-.89c1.54-4.68,2.23-9.57,2.38-14.48.17-4.91-.13-9.85-.74-14.76-.63-4.91-1.42-9.81-2.52-14.67-4.34-19.44-11.15-38.4-18.77-56.98-3.82-9.3-7.83-18.53-12.09-27.66-4.26-9.13-8.58-18.24-13.14-27.24-4.57-9-9.17-17.98-13.91-26.89-4.73-8.92-9.69-17.73-14.57-26.58-4.91-8.83-9.95-17.6-15.08-26.31-5.12-8.72-10.22-17.45-15.49-26.08-10.5-17.29-21.26-34.43-32.2-51.46-21.9-34.04-44.69-67.53-68.16-100.55-23.51-32.99-47.66-65.51-72.64-97.36-12.49-15.93-25.17-31.7-38.04-47.3-6.43-7.81-12.98-15.51-19.56-23.19-6.54-7.71-13.17-15.35-19.89-22.89-6.75-7.52-13.46-15.07-20.32-22.48-6.85-7.41-13.84-14.7-20.83-21.97-7.01-7.26-14.18-14.34-21.42-21.35-7.23-7.02-14.62-13.85-22.15-20.5-7.5-6.69-15.22-13.11-23.12-19.27-7.9-6.15-16.06-11.94-24.53-17.17-4.23-2.64-8.59-5-13.02-7.2-4.44-2.19-9-4.1-13.7-5.55-4.69-1.47-9.53-2.43-14.46-2.51l-.93-.03-.92.05-1.85.1c-.61.07-1.22.18-1.84.26-.62.09-1.24.17-1.83.35l-1.83.44c-.6.18-1.18.41-1.78.62l-.9.32c-.29.12-.57.27-.86.41l-1.73.84,1.51-1.21c.26-.2.5-.42.77-.6l.82-.53c.55-.34,1.1-.72,1.67-1.05l1.77-.89c.59-.32,1.21-.54,1.83-.77.62-.23,1.25-.48,1.88-.68l1.93-.52.98-.26.99-.18c5.28-1.02,10.73-.97,16.05-.39,5.33.61,10.56,1.8,15.68,3.25,5.12,1.45,10.12,3.27,15.02,5.27,4.9,2,9.73,4.15,14.43,6.53,4.73,2.33,9.35,4.84,13.94,7.4,9.14,5.18,17.97,10.82,26.66,16.65,8.65,5.87,17.08,12.05,25.38,18.36,8.29,6.33,16.35,12.92,24.34,19.59,8,6.66,15.78,13.56,23.48,20.53,7.7,6.98,15.31,14.05,22.73,21.3,7.45,7.22,14.8,14.55,22.06,21.95,7.24,7.42,14.35,14.97,21.39,22.56,7.05,7.59,14.04,15.25,20.86,23.04,3.43,3.88,6.83,7.78,10.22,11.7,3.36,3.94,6.74,7.86,10.06,11.83,26.69,31.66,51.94,64.47,75.92,98.18,47.85,67.46,90.89,138.53,126.02,213.77,4.42,9.39,8.58,18.91,12.65,28.46,4.06,9.56,8.01,19.18,11.68,28.92,3.68,9.73,7.27,19.51,10.52,29.42,3.24,9.91,6.31,19.89,9.02,29.99,5.33,20.21,9.68,40.85,10.84,62.01.29,5.28.36,10.6.05,15.91-.3,5.31-.89,10.64-2.07,15.87-1.2,5.22-2.93,10.38-5.63,15.03-2.61,4.68-6.49,8.64-10.96,11.18Z"/>
      </g>
      <g>
        <path class="cls-4" d="m1278.35,640.07c.29,3.47-.47,7.05-1.9,10.32-1.46,3.27-3.54,6.25-5.87,8.96-4.7,5.43-10.39,9.83-16.25,13.82-11.84,7.86-24.62,13.98-37.59,19.4-26,10.78-52.91,18.77-79.96,25.79-27.09,6.91-54.42,12.68-81.86,17.64-13.71,2.53-27.47,4.78-41.24,6.9-13.77,2.11-27.55,4.16-41.37,5.91-110.49,14.31-221.78,20.17-332.96,20.26-55.6.01-111.21-1.52-166.74-4.76-13.88-.81-27.76-1.72-41.63-2.77-13.87-1.01-27.73-2.21-41.59-3.49-13.85-1.29-27.7-2.64-41.54-4.16-13.83-1.57-27.65-3.24-41.46-5.03-13.81-1.76-27.6-3.78-41.37-5.91-13.77-2.13-27.53-4.36-41.24-6.9-13.71-2.52-27.42-5.14-41.06-8.09-13.64-2.96-27.26-6.09-40.8-9.56-27.05-7.03-53.96-15.02-79.96-25.81-12.97-5.42-25.75-11.55-37.59-19.41-5.86-3.99-11.55-8.39-16.25-13.83-2.33-2.71-4.41-5.69-5.87-8.97-1.44-3.27-2.19-6.86-1.9-10.32.29,3.47,1.59,6.7,3.43,9.5,1.83,2.81,4.16,5.26,6.71,7.43,5.11,4.34,11,7.73,17.07,10.68,6.08,2.96,12.38,5.48,18.79,7.74,6.42,2.23,12.91,4.29,19.47,6.13,13.14,3.65,26.45,6.77,39.86,9.45,13.41,2.7,26.89,5.11,40.43,7.2,13.53,2.14,27.1,4.08,40.72,5.78,13.61,1.71,27.23,3.36,40.88,4.76,13.66,1.39,27.31,2.77,40.99,3.97,13.68,1.22,27.37,2.24,41.06,3.31,13.7,1.03,27.4,1.95,41.12,2.76,13.71.85,27.43,1.66,41.15,2.35,13.72.69,27.45,1.27,41.18,1.86,13.73.55,27.47,1.06,41.2,1.51,54.95,1.76,109.94,2.57,164.94,2.59,55,0,109.99-.8,164.94-2.55,27.47-.9,54.94-1.99,82.39-3.35,13.72-.68,27.44-1.51,41.15-2.34,13.72-.81,27.42-1.73,41.12-2.76,13.69-1.08,27.39-2.08,41.07-3.31,13.68-1.21,27.34-2.58,40.99-3.97,13.65-1.4,27.27-3.06,40.88-4.76,13.61-1.7,27.18-3.65,40.72-5.78,13.54-2.09,27.02-4.51,40.43-7.21,13.41-2.69,26.72-5.8,39.86-9.46,13.09-3.74,26.09-7.98,38.26-13.88,6.07-2.95,11.95-6.35,17.06-10.69,2.55-2.17,4.87-4.62,6.71-7.43,1.83-2.8,3.13-6.03,3.42-9.5Z"/>
        <path class="cls-2" d="m.35,640.07c-.29-3.47.47-7.05,1.9-10.32,1.46-3.27,3.54-6.25,5.87-8.96,4.7-5.43,10.39-9.83,16.25-13.82,11.84-7.86,24.62-13.98,37.59-19.4,26-10.78,52.91-18.77,79.96-25.79,27.09-6.91,54.42-12.68,81.86-17.64,13.71-2.53,27.47-4.78,41.24-6.9,13.77-2.11,27.55-4.16,41.37-5.91,110.49-14.31,221.78-20.17,332.96-20.26,55.6-.01,111.21,1.52,166.74,4.76,13.88.81,27.76,1.72,41.63,2.77,13.87,1.01,27.73,2.21,41.59,3.49,13.85,1.29,27.7,2.64,41.54,4.16,13.83,1.57,27.65,3.24,41.46,5.03,13.81,1.76,27.6,3.78,41.37,5.91,13.77,2.13,27.53,4.36,41.24,6.9,13.71,2.52,27.42,5.14,41.06,8.09,13.64,2.96,27.26,6.09,40.8,9.56,27.05,7.03,53.96,15.02,79.96,25.81,12.97,5.42,25.75,11.55,37.59,19.41,5.86,3.99,11.55,8.39,16.25,13.83,2.33,2.71,4.41,5.69,5.87,8.97,1.44,3.27,2.19,6.86,1.9,10.32-.29-3.47-1.59-6.7-3.43-9.5-1.83-2.81-4.16-5.26-6.71-7.43-5.11-4.34-11-7.73-17.07-10.68-6.08-2.96-12.38-5.48-18.79-7.74-6.42-2.23-12.91-4.29-19.47-6.13-13.14-3.65-26.45-6.77-39.86-9.45-13.41-2.7-26.89-5.11-40.43-7.2-13.53-2.14-27.1-4.08-40.72-5.78-13.61-1.71-27.23-3.36-40.88-4.76-13.66-1.39-27.31-2.77-40.99-3.97-13.68-1.22-27.37-2.24-41.06-3.31-13.7-1.03-27.4-1.95-41.12-2.76-13.71-.85-27.43-1.66-41.15-2.35-13.72-.69-27.45-1.27-41.18-1.86-13.73-.55-27.47-1.06-41.2-1.51-54.95-1.76-109.94-2.57-164.94-2.59-55,0-109.99.8-164.94,2.55-27.47.9-54.94,1.99-82.39,3.35-13.72.68-27.44,1.51-41.15,2.34-13.72.81-27.42,1.73-41.12,2.76-13.69,1.08-27.39,2.08-41.07,3.31-13.68,1.21-27.34,2.58-40.99,3.97-13.65,1.4-27.27,3.06-40.88,4.76-13.61,1.7-27.18,3.65-40.72,5.78-13.54,2.09-27.02,4.51-40.43,7.21-13.41,2.69-26.72,5.8-39.86,9.46-13.09,3.74-26.09,7.98-38.26,13.88-6.07,2.95-11.95,6.35-17.06,10.69-2.55,2.17-4.87,4.62-6.71,7.43-1.83,2.8-3.13,6.03-3.42,9.5Z"/>
      </g>
      <g>
        <path class="cls-5" d="m128.99,1279.07c-3.47.29-7.05-.47-10.32-1.9-3.27-1.46-6.25-3.54-8.96-5.87-5.43-4.7-9.83-10.39-13.82-16.25-7.86-11.84-13.98-24.62-19.4-37.59-10.78-26-18.77-52.91-25.79-79.96-6.91-27.09-12.68-54.42-17.64-81.86-2.53-13.71-4.78-27.47-6.9-41.24-2.11-13.77-4.16-27.55-5.91-41.37C5.95,862.55.09,751.26,0,640.07c-.01-55.6,1.52-111.21,4.76-166.74.81-13.88,1.72-27.76,2.77-41.63,1.01-13.87,2.21-27.73,3.49-41.59,1.29-13.85,2.64-27.7,4.16-41.54,1.57-13.83,3.24-27.65,5.03-41.46,1.76-13.81,3.78-27.6,5.91-41.37,2.13-13.77,4.36-27.53,6.9-41.24,2.52-13.71,5.14-27.42,8.09-41.06,2.96-13.64,6.09-27.26,9.56-40.8,7.03-27.05,15.02-53.96,25.81-79.96,5.42-12.97,11.55-25.75,19.41-37.59,3.99-5.86,8.39-11.55,13.83-16.25,2.71-2.33,5.69-4.41,8.97-5.87,3.27-1.44,6.86-2.19,10.32-1.9-3.47.29-6.7,1.59-9.5,3.43-2.81,1.83-5.26,4.16-7.43,6.71-4.34,5.11-7.73,11-10.68,17.07-2.96,6.08-5.48,12.38-7.74,18.79-2.23,6.42-4.29,12.91-6.13,19.47-3.65,13.14-6.77,26.45-9.45,39.86-2.7,13.41-5.11,26.89-7.2,40.43-2.14,13.53-4.08,27.1-5.78,40.72-1.71,13.61-3.36,27.23-4.76,40.88-1.39,13.66-2.77,27.31-3.97,40.99-1.22,13.68-2.24,27.37-3.31,41.06-1.03,13.7-1.95,27.4-2.76,41.12-.85,13.71-1.66,27.43-2.35,41.15-.69,13.72-1.27,27.45-1.86,41.18-.55,13.73-1.06,27.47-1.51,41.2-1.76,54.95-2.57,109.94-2.59,164.94,0,55,.8,109.99,2.55,164.94.9,27.47,1.99,54.94,3.35,82.39.68,13.72,1.51,27.44,2.34,41.15.81,13.72,1.73,27.42,2.76,41.12,1.08,13.69,2.08,27.39,3.31,41.07,1.21,13.68,2.58,27.34,3.97,40.99,1.4,13.65,3.06,27.27,4.76,40.88,1.7,13.61,3.65,27.18,5.78,40.72,2.09,13.54,4.51,27.02,7.21,40.43,2.69,13.41,5.8,26.72,9.46,39.86,3.74,13.09,7.98,26.09,13.88,38.26,2.95,6.07,6.35,11.95,10.69,17.06,2.17,2.55,4.62,4.87,7.43,6.71,2.8,1.83,6.03,3.13,9.5,3.42Z"/>
        <path class="cls-10" d="m128.99,1.07c3.47-.29,7.05.47,10.32,1.9,3.27,1.46,6.25,3.54,8.96,5.87,5.43,4.7,9.83,10.39,13.82,16.25,7.86,11.84,13.98,24.62,19.4,37.59,10.78,26,18.77,52.91,25.79,79.96,6.91,27.09,12.68,54.42,17.64,81.86,2.53,13.71,4.78,27.47,6.9,41.24,2.11,13.77,4.16,27.55,5.91,41.37,14.31,110.49,20.17,221.78,20.26,332.96.01,55.6-1.52,111.21-4.76,166.74-.81,13.88-1.72,27.76-2.77,41.63-1.01,13.87-2.21,27.73-3.49,41.59-1.29,13.85-2.64,27.7-4.16,41.54-1.57,13.83-3.24,27.65-5.03,41.46-1.76,13.81-3.78,27.6-5.91,41.37-2.13,13.77-4.36,27.53-6.9,41.24-2.52,13.71-5.14,27.42-8.09,41.06-2.96,13.64-6.09,27.26-9.56,40.8-7.03,27.05-15.02,53.96-25.81,79.96-5.42,12.97-11.55,25.75-19.41,37.59-3.99,5.86-8.39,11.55-13.83,16.25-2.71,2.33-5.69,4.41-8.97,5.87-3.27,1.44-6.86,2.19-10.32,1.9,3.47-.29,6.7-1.59,9.5-3.43,2.81-1.83,5.26-4.16,7.43-6.71,4.34-5.11,7.73-11,10.68-17.07,2.96-6.08,5.48-12.38,7.74-18.79,2.23-6.42,4.29-12.91,6.13-19.47,3.65-13.14,6.77-26.45,9.45-39.86,2.7-13.41,5.11-26.89,7.2-40.43,2.14-13.53,4.08-27.1,5.78-40.72,1.71-13.61,3.36-27.23,4.76-40.88,1.39-13.66,2.77-27.31,3.97-40.99,1.22-13.68,2.24-27.37,3.31-41.06,1.03-13.7,1.95-27.4,2.76-41.12.85-13.71,1.66-27.43,2.35-41.15.69-13.72,1.27-27.45,1.86-41.18.55-13.73,1.06-27.47,1.51-41.2,1.76-54.95,2.57-109.94,2.59-164.94,0-55-.8-109.99-2.55-164.94-.9-27.47-1.99-54.94-3.35-82.39-.68-13.72-1.51-27.44-2.34-41.15-.81-13.72-1.73-27.42-2.76-41.12-1.08-13.69-2.08-27.39-3.31-41.07-1.21-13.68-2.58-27.34-3.97-40.99-1.4-13.65-3.06-27.27-4.76-40.88-1.7-13.61-3.65-27.18-5.78-40.72-2.09-13.54-4.51-27.02-7.21-40.43-2.69-13.41-5.8-26.72-9.46-39.86-3.74-13.09-7.98-26.09-13.88-38.26-2.95-6.07-6.35-11.95-10.69-17.06-2.17-2.55-4.62-4.87-7.43-6.71-2.8-1.83-6.03-3.13-9.5-3.42Z"/>
      </g>
      <g>
        <path class="cls-6" d="m1149.73,1279.07c-3.47.29-7.05-.47-10.32-1.9-3.27-1.46-6.25-3.54-8.96-5.87-5.43-4.7-9.83-10.39-13.82-16.25-7.86-11.84-13.98-24.62-19.4-37.59-10.78-26-18.77-52.91-25.79-79.96-6.91-27.09-12.68-54.42-17.64-81.86-2.53-13.71-4.78-27.47-6.9-41.24-2.11-13.77-4.16-27.55-5.91-41.37-14.31-110.49-20.17-221.78-20.26-332.96-.01-55.6,1.52-111.21,4.76-166.74.81-13.88,1.72-27.76,2.77-41.63,1.01-13.87,2.21-27.73,3.49-41.59,1.29-13.85,2.64-27.7,4.16-41.54,1.57-13.83,3.24-27.65,5.03-41.46,1.76-13.81,3.78-27.6,5.91-41.37,2.13-13.77,4.36-27.53,6.9-41.24,2.52-13.71,5.14-27.42,8.09-41.06,2.96-13.64,6.09-27.26,9.56-40.8,7.03-27.05,15.02-53.96,25.81-79.96,5.42-12.97,11.55-25.75,19.41-37.59,3.99-5.86,8.39-11.55,13.83-16.25,2.71-2.33,5.69-4.41,8.97-5.87,3.27-1.44,6.86-2.19,10.32-1.9-3.47.29-6.7,1.59-9.5,3.43-2.81,1.83-5.26,4.16-7.43,6.71-4.34,5.11-7.73,11-10.68,17.07-2.96,6.08-5.48,12.38-7.74,18.79-2.23,6.42-4.29,12.91-6.13,19.47-3.65,13.14-6.77,26.45-9.45,39.86-2.7,13.41-5.11,26.89-7.2,40.43-2.14,13.53-4.08,27.1-5.78,40.72-1.71,13.61-3.36,27.23-4.76,40.88-1.39,13.66-2.77,27.31-3.97,40.99-1.22,13.68-2.24,27.37-3.31,41.06-1.03,13.7-1.95,27.4-2.76,41.12-.85,13.71-1.66,27.43-2.35,41.15-.69,13.72-1.27,27.45-1.86,41.18-.55,13.73-1.06,27.47-1.51,41.2-1.76,54.95-2.57,109.94-2.59,164.94,0,55,.8,109.99,2.55,164.94.9,27.47,1.99,54.94,3.35,82.39.68,13.72,1.51,27.44,2.34,41.15.81,13.72,1.73,27.42,2.76,41.12,1.08,13.69,2.08,27.39,3.31,41.07,1.21,13.68,2.58,27.34,3.97,40.99,1.4,13.65,3.06,27.27,4.76,40.88,1.7,13.61,3.65,27.18,5.78,40.72,2.09,13.54,4.51,27.02,7.21,40.43,2.69,13.41,5.8,26.72,9.46,39.86,3.74,13.09,7.98,26.09,13.88,38.26,2.95,6.07,6.35,11.95,10.69,17.06,2.17,2.55,4.62,4.87,7.43,6.71,2.8,1.83,6.03,3.13,9.5,3.42Z"/>
        <path class="cls-3" d="m1149.73,1.07c3.47-.29,7.05.47,10.32,1.9,3.27,1.46,6.25,3.54,8.96,5.87,5.43,4.7,9.83,10.39,13.82,16.25,7.86,11.84,13.98,24.62,19.4,37.59,10.78,26,18.77,52.91,25.79,79.96,6.91,27.09,12.68,54.42,17.64,81.86,2.53,13.71,4.78,27.47,6.9,41.24,2.11,13.77,4.16,27.55,5.91,41.37,14.31,110.49,20.17,221.78,20.26,332.96.01,55.6-1.52,111.21-4.76,166.74-.81,13.88-1.72,27.76-2.77,41.63-1.01,13.87-2.21,27.73-3.49,41.59-1.29,13.85-2.64,27.7-4.16,41.54-1.57,13.83-3.24,27.65-5.03,41.46-1.76,13.81-3.78,27.6-5.91,41.37-2.13,13.77-4.36,27.53-6.9,41.24-2.52,13.71-5.14,27.42-8.09,41.06-2.96,13.64-6.09,27.26-9.56,40.8-7.03,27.05-15.02,53.96-25.81,79.96-5.42,12.97-11.55,25.75-19.41,37.59-3.99,5.86-8.39,11.55-13.83,16.25-2.71,2.33-5.69,4.41-8.97,5.87-3.27,1.44-6.86,2.19-10.32,1.9,3.47-.29,6.7-1.59,9.5-3.43,2.81-1.83,5.26-4.16,7.43-6.71,4.34-5.11,7.73-11,10.68-17.07,2.96-6.08,5.48-12.38,7.74-18.79,2.23-6.42,4.29-12.91,6.13-19.47,3.65-13.14,6.77-26.45,9.45-39.86,2.7-13.41,5.11-26.89,7.2-40.43,2.14-13.53,4.08-27.1,5.78-40.72,1.71-13.61,3.36-27.23,4.76-40.88,1.39-13.66,2.77-27.31,3.97-40.99,1.22-13.68,2.24-27.37,3.31-41.06,1.03-13.7,1.95-27.4,2.76-41.12.85-13.71,1.66-27.43,2.35-41.15.69-13.72,1.27-27.45,1.86-41.18.55-13.73,1.06-27.47,1.51-41.2,1.76-54.95,2.57-109.94,2.59-164.94,0-55-.8-109.99-2.55-164.94-.9-27.47-1.99-54.94-3.35-82.39-.68-13.72-1.51-27.44-2.34-41.15-.81-13.72-1.73-27.42-2.76-41.12-1.08-13.69-2.08-27.39-3.31-41.07-1.21-13.68-2.58-27.34-3.97-40.99-1.4-13.65-3.06-27.27-4.76-40.88-1.7-13.61-3.65-27.18-5.78-40.72-2.09-13.54-4.51-27.02-7.21-40.43-2.69-13.41-5.8-26.72-9.46-39.86-3.74-13.09-7.98-26.09-13.88-38.26-2.95-6.07-6.35-11.95-10.69-17.06-2.17-2.55-4.62-4.87-7.43-6.71-2.8-1.83-6.03-3.13-9.5-3.42Z"/>
      </g>
    </g>
  </g>
</svg>