<?xml version="1.0" encoding="UTF-8"?>
<svg id="Layer_2" data-name="Layer 2" xmlns="http://www.w3.org/2000/svg" viewBox="0 0 456.87 456.87">
  <defs>
    <style>
      .cls-1 {
        fill: #fff;
      }

      .cls-2 {
        fill: #1877f2;
      }
    </style>
  </defs>
  <g id="Layer_1-2" data-name="Layer 1">
    <g>
      <path class="cls-2" d="m456.87,228.43C456.87,102.27,354.59,0,228.43,0S0,102.27,0,228.43c0,114.02,83.54,208.52,192.74,225.66v-159.63h-58v-66.03h58v-50.33c0-57.25,34.1-88.88,86.28-88.88,24.99,0,51.13,4.46,51.13,4.46v56.22h-28.81c-28.38,0-37.23,17.61-37.23,35.67v42.85h63.35l-10.13,66.03h-53.23v159.63c109.21-17.14,192.74-111.64,192.74-225.66Z"/>
      <path class="cls-1" d="m317.35,294.47l10.13-66.03h-63.35v-42.85c0-18.07,8.85-35.67,37.23-35.67h28.81v-56.22s-26.14-4.46-51.13-4.46c-52.18,0-86.28,31.62-86.28,88.88v50.33h-58v66.03h58v159.63c11.63,1.82,23.55,2.78,35.69,2.78s24.06-.95,35.69-2.78v-159.63h53.23Z"/>
    </g>
  </g>
</svg>